<svg xmlns="http://www.w3.org/2000/svg" width="850" height="1100" viewBox="0 0 850 1100"><rect data-chrome="1" x="0" y="0" width="850" height="1100" fill="white"/><rect data-chrome="1" x="62" y="50" width="738" height="1000" rx="24" fill="none" stroke="black" stroke-width="6"/><rect x="500.0" y="196.0" width="268.0" height="316.0" rx="12" fill="white" stroke="black" stroke-width="5.5"/><line x1="634" y1="196" x2="634" y2="512" stroke="black" stroke-width="4" stroke-linecap="round"/><line x1="500" y1="354" x2="768" y2="354" stroke="black" stroke-width="4" stroke-linecap="round"/><polygon data-sky="1" points="533.7,226.3 531.3,232.0 525.1,232.5 529.8,236.6 528.4,242.6 533.7,239.3 539.0,242.6 537.6,236.6 542.3,232.5 536.1,232.0" fill="white" stroke="black" stroke-width="2.5" stroke-linejoin="round"/><line data-sky="1" x1="628.1" y1="255" x2="650.1" y2="255" stroke="black" stroke-width="3.5" stroke-linecap="round"/><line data-sky="1" x1="639.1" y1="244" x2="639.1" y2="266" stroke="black" stroke-width="3.5" stroke-linecap="round"/><line data-sky="1" x1="694.2" y1="274.6" x2="708.2" y2="274.6" stroke="black" stroke-width="3.5" stroke-linecap="round"/><line data-sky="1" x1="701.2" y1="267.6" x2="701.2" y2="281.6" stroke="black" stroke-width="3.5" stroke-linecap="round"/><polygon data-sky="1" points="570.7,327.9 568.3,333.6 562.1,334.1 566.8,338.2 565.4,344.2 570.7,341.0 575.9,344.2 574.5,338.2 579.2,334.1 573.0,333.6" fill="white" stroke="black" stroke-width="2.5" stroke-linejoin="round"/><line data-sky="1" x1="625.8" y1="356.6" x2="639.8" y2="356.6" stroke="black" stroke-width="3.5" stroke-linecap="round"/><line data-sky="1" x1="632.8" y1="349.6" x2="632.8" y2="363.6" stroke="black" stroke-width="3.5" stroke-linecap="round"/><line data-sky="1" x1="683.9" y1="376.2" x2="705.9" y2="376.2" stroke="black" stroke-width="3.5" stroke-linecap="round"/><line data-sky="1" x1="694.9" y1="365.2" x2="694.9" y2="387.2" stroke="black" stroke-width="3.5" stroke-linecap="round"/><polygon data-sky="1" points="564.3,429.5 562.0,435.2 555.8,435.7 560.5,439.8 559.1,445.8 564.3,442.6 569.6,445.8 568.2,439.8 572.9,435.7 566.7,435.2" fill="white" stroke="black" stroke-width="2.5" stroke-linejoin="round"/><line data-sky="1" x1="615.5" y1="458.2" x2="637.5" y2="458.2" stroke="black" stroke-width="3.5" stroke-linecap="round"/><line data-sky="1" x1="626.5" y1="447.2" x2="626.5" y2="469.2" stroke="black" stroke-width="3.5" stroke-linecap="round"/><line data-sky="1" x1="724.9" y1="425.8" x2="738.9" y2="425.8" stroke="black" stroke-width="3.5" stroke-linecap="round"/><line data-sky="1" x1="731.9" y1="418.8" x2="731.9" y2="432.8" stroke="black" stroke-width="3.5" stroke-linecap="round"/><g transform="translate(132,938) rotate(0) scale(1)"><line x1="0" y1="0" x2="0" y2="-332" stroke="black" stroke-width="4" stroke-linecap="round"/><path d="M -20 0 L 20 0" fill="none" stroke="black" stroke-width="5" stroke-linecap="round" stroke-linejoin="round"/><path d="M -34 -332 L -22 -360 L 22 -360 L 34 -332 Z" fill="white" stroke="black" stroke-width="4" stroke-linecap="round" stroke-linejoin="round"/></g><line x1="70" y1="938" x2="792" y2="938" stroke="black" stroke-width="4" stroke-linecap="round"/><ellipse cx="450" cy="930" rx="300" ry="26" fill="white" stroke="black" stroke-width="4"/><ellipse cx="450" cy="930" rx="198" ry="15.6" fill="white" stroke="black" stroke-width="3"/><g transform="translate(404,742) rotate(0) scale(1.12)"><g data-el="figure"><path d="M -12 -70 L -12 -8 Q -12 0 -4 0 L 4 0" fill="none" stroke="black" stroke-width="5" stroke-linecap="round" stroke-linejoin="round"/><path d="M 14 -70 L 14 -8 Q 14 0 22 0 L 30 0" fill="none" stroke="black" stroke-width="5" stroke-linecap="round" stroke-linejoin="round"/><path d="M -18 -152 L 18 -152 L 26 -70 L -26 -70 Z" fill="white" stroke="black" stroke-width="5" stroke-linecap="round" stroke-linejoin="round"/><path d="M -22 -96 L 22 -96" fill="none" stroke="black" stroke-width="4" stroke-linecap="round" stroke-linejoin="round"/><path d="M -13.9 -137.8 C -12.3 -139.4 -7.5 -139.3 -13.4 -146.6 C -19.2 -153.9 -41.3 -171.3 -49.1 -181.6 C -56.9 -191.9 -57.5 -203.4 -60.2 -208.3 C -63 -213.3 -64.3 -211.8 -65.5 -211.3 C -66.8 -210.9 -68.9 -211.7 -67.8 -205.7 C -66.7 -199.7 -66.4 -186.8 -58.9 -175.4 C -51.4 -164.1 -30.1 -143.7 -22.6 -137.4 C -15.1 -131.2 -15.4 -136.3 -13.9 -137.8 Z" fill="white" stroke="black" stroke-width="5" stroke-linecap="round" stroke-linejoin="round"/><circle cx="-64" cy="-207" r="8" data-hand="1" fill="white" stroke="black" stroke-width="4"/><path d="M 13.9 -137.8 C 15.4 -136.3 15.1 -131.2 22.6 -137.4 C 30.1 -143.7 51.4 -164.1 58.9 -175.4 C 66.4 -186.8 66.7 -199.7 67.8 -205.7 C 68.9 -211.7 66.8 -210.9 65.5 -211.3 C 64.3 -211.8 63 -213.3 60.2 -208.3 C 57.5 -203.4 56.9 -191.9 49.1 -181.6 C 41.3 -171.3 19.2 -153.9 13.4 -146.6 C 7.5 -139.3 12.3 -139.4 13.9 -137.8 Z" fill="white" stroke="black" stroke-width="5" stroke-linecap="round" stroke-linejoin="round"/><circle cx="64" cy="-207" r="8" data-hand="1" fill="white" stroke="black" stroke-width="4"/><circle cx="0" cy="-188" r="37" data-face="0,-188,37" fill="white" stroke="black" stroke-width="5"/><path d="M -37.74 -186.15 Q -42.55 -221.3 -12.95 -229.44 Q 0 -236.1 16.7 -227.96 Q 42.55 -219.45 37.0 -186.15 Q 35.15 -200.95 26.64 -199.1 Q 20.35 -208.35 11.1 -202.06 Q 1.85 -210.2 -8.14 -201.32 Q -18.5 -209.46 -25.9 -199.1 Q -35.15 -200.95 -37.74 -186.15 Z" fill="white" stroke="black" stroke-width="4.5" stroke-linecap="round" stroke-linejoin="round"/><circle cx="-13.5" cy="-185.3" r="3" fill="black"/><circle cx="13.5" cy="-185.3" r="3" fill="black"/><path d="M -9.4 -173.2 Q 0 -162.1 9.4 -173.2" fill="none" stroke="black" stroke-width="4" stroke-linecap="round" stroke-linejoin="round"/><circle cx="-20.7" cy="-175.4" r="3.7" fill="none" stroke="black" stroke-width="2.5"/><circle cx="20.7" cy="-175.4" r="3.7" fill="none" stroke="black" stroke-width="2.5"/><circle cx="-13.5" cy="-185.3" r="11.1" fill="none" stroke="black" stroke-width="3.5"/><circle cx="13.5" cy="-185.3" r="11.1" fill="none" stroke="black" stroke-width="3.5"/><line x1="-2.4" y1="-185.3" x2="2.4" y2="-185.3" stroke="black" stroke-width="3.5" stroke-linecap="round"/></g></g><path d="M 300 700 L 404 596 L 508 700 Z" fill="white" stroke="black" stroke-width="5" stroke-linecap="round" stroke-linejoin="round"/><path d="M 300 700 L 236 906 L 300 890 Z" fill="white" stroke="black" stroke-width="5" stroke-linecap="round" stroke-linejoin="round"/><path d="M 508 700 L 572 906 L 508 890 Z" fill="white" stroke="black" stroke-width="5" stroke-linecap="round" stroke-linejoin="round"/><rect x="300.0" y="700.0" width="208.0" height="200.0" rx="10" fill="white" stroke="black" stroke-width="5.5"/><line x1="300" y1="752" x2="508" y2="752" stroke="black" stroke-width="3.5" stroke-linecap="round"/><circle cx="404" cy="828" r="34" fill="none" stroke="black" stroke-width="4.5"/><circle cx="404" cy="828" r="20" fill="none" stroke="black" stroke-width="3"/><g data-mat="1" data-pad="7.5"><g transform="translate(692,938) rotate(0) scale(1.2)"><g data-el="figure"><path d="M -18 -160 L 18 -160 L 30 -108 L 62 -18 Q 48 -28 38 -14 Q 28 -26 16 -12 Q 4 -26 -8 -12 Q -20 -26 -30 -14 Q -42 -28 -55 -16 L -28 -108 Z" fill="white" stroke="white" stroke-width="12.5" stroke-linecap="round" stroke-linejoin="round"/><path d="M -26 -100 L 26 -100" fill="none" stroke="white" stroke-width="11.5" stroke-linecap="round" stroke-linejoin="round"/><circle cx="-20" cy="-58" r="3" fill="white"/><circle cx="4" cy="-42" r="3" fill="white"/><circle cx="24" cy="-62" r="3" fill="white"/><circle cx="0" cy="-78" r="3" fill="white"/><path d="M -18 -14 L -18 0 Q -18 6 -10 6 L -6 6" fill="none" stroke="white" stroke-width="12.0" stroke-linecap="round" stroke-linejoin="round"/><path d="M 18 -14 L 18 0 Q 18 6 26 6 L 30 6" fill="none" stroke="white" stroke-width="12.0" stroke-linecap="round" stroke-linejoin="round"/><path d="M -15.6 -153.8 C -17 -155.5 -17.9 -158.8 -24.3 -154.9 C -30.6 -151 -49.2 -140.1 -53.6 -130.3 C -58.1 -120.5 -52.1 -102.6 -51 -96.1 C -49.9 -89.6 -48.4 -91.4 -47.1 -91.4 C -45.7 -91.4 -44.3 -90.6 -43 -95.9 C -41.7 -101.3 -43.9 -115.5 -39.4 -123.7 C -34.8 -131.9 -19.7 -140.1 -15.7 -145.1 C -11.8 -150.1 -14.2 -152.2 -15.6 -153.8 Z" fill="white" stroke="white" stroke-width="12.5" stroke-linecap="round" stroke-linejoin="round"/><circle cx="-47" cy="-96" r="8" data-hand="1" fill="white" stroke="white" stroke-width="11.5"/><path d="M 15.6 -153.8 C 14.2 -152.2 11.8 -150.1 15.7 -145.1 C 19.7 -140.1 34.8 -131.9 39.4 -123.7 C 43.9 -115.5 41.7 -101.3 43 -95.9 C 44.3 -90.6 45.7 -91.4 47.1 -91.4 C 48.4 -91.4 49.9 -89.6 51 -96.1 C 52.1 -102.6 58.1 -120.5 53.6 -130.3 C 49.2 -140.1 30.6 -151 24.3 -154.9 C 17.9 -158.8 17 -155.5 15.6 -153.8 Z" fill="white" stroke="white" stroke-width="12.5" stroke-linecap="round" stroke-linejoin="round"/><circle cx="47" cy="-96" r="8" data-hand="1" fill="white" stroke="white" stroke-width="11.5"/><circle cx="0" cy="-196" r="37" data-face="0,-196,37" fill="white" stroke="white" stroke-width="12.5"/><path d="M -42.18 -173.06 Q -48.1 -229.3 -14.8 -239.66 Q 14.8 -245.95 38.85 -218.2 Q 47.36 -199.7 42.18 -173.06 Q 36.26 -168.25 32.56 -175.65 L 31.82 -206.36 Q 16.7 -214.5 3.7 -208.58 Q -11.1 -215.24 -31.82 -207.1 L -32.56 -175.65 Q -36.26 -168.25 -42.18 -173.06 Z" fill="white" stroke="white" stroke-width="12.0" stroke-linecap="round" stroke-linejoin="round"/><circle cx="-14.1" cy="-193" r="3.9" fill="white"/><circle cx="14.1" cy="-193" r="3.9" fill="white"/><path d="M -9.3 -181.2 Q 0 -170.1 9.3 -181.2" fill="none" stroke="white" stroke-width="11.5" stroke-linecap="round" stroke-linejoin="round"/><circle cx="-20.4" cy="-184.2" r="2" fill="white"/><circle cx="-15.5" cy="-180.5" r="2" fill="white"/><circle cx="-22.9" cy="-179.3" r="2" fill="white"/><circle cx="20.4" cy="-184.2" r="2" fill="white"/><circle cx="15.5" cy="-180.5" r="2" fill="white"/><circle cx="22.9" cy="-179.3" r="2" fill="white"/></g></g></g><g transform="translate(692,938) rotate(0) scale(1.2)"><g data-el="figure"><path d="M -18 -160 L 18 -160 L 30 -108 L 62 -18 Q 48 -28 38 -14 Q 28 -26 16 -12 Q 4 -26 -8 -12 Q -20 -26 -30 -14 Q -42 -28 -55 -16 L -28 -108 Z" fill="white" stroke="black" stroke-width="5" stroke-linecap="round" stroke-linejoin="round"/><path d="M -26 -100 L 26 -100" fill="none" stroke="black" stroke-width="4" stroke-linecap="round" stroke-linejoin="round"/><circle cx="-20" cy="-58" r="3" fill="black"/><circle cx="4" cy="-42" r="3" fill="black"/><circle cx="24" cy="-62" r="3" fill="black"/><circle cx="0" cy="-78" r="3" fill="black"/><path d="M -18 -14 L -18 0 Q -18 6 -10 6 L -6 6" fill="none" stroke="black" stroke-width="4.5" stroke-linecap="round" stroke-linejoin="round"/><path d="M 18 -14 L 18 0 Q 18 6 26 6 L 30 6" fill="none" stroke="black" stroke-width="4.5" stroke-linecap="round" stroke-linejoin="round"/><path d="M -15.6 -153.8 C -17 -155.5 -17.9 -158.8 -24.3 -154.9 C -30.6 -151 -49.2 -140.1 -53.6 -130.3 C -58.1 -120.5 -52.1 -102.6 -51 -96.1 C -49.9 -89.6 -48.4 -91.4 -47.1 -91.4 C -45.7 -91.4 -44.3 -90.6 -43 -95.9 C -41.7 -101.3 -43.9 -115.5 -39.4 -123.7 C -34.8 -131.9 -19.7 -140.1 -15.7 -145.1 C -11.8 -150.1 -14.2 -152.2 -15.6 -153.8 Z" fill="white" stroke="black" stroke-width="5" stroke-linecap="round" stroke-linejoin="round"/><circle cx="-47" cy="-96" r="8" data-hand="1" fill="white" stroke="black" stroke-width="4"/><path d="M 15.6 -153.8 C 14.2 -152.2 11.8 -150.1 15.7 -145.1 C 19.7 -140.1 34.8 -131.9 39.4 -123.7 C 43.9 -115.5 41.7 -101.3 43 -95.9 C 44.3 -90.6 45.7 -91.4 47.1 -91.4 C 48.4 -91.4 49.9 -89.6 51 -96.1 C 52.1 -102.6 58.1 -120.5 53.6 -130.3 C 49.2 -140.1 30.6 -151 24.3 -154.9 C 17.9 -158.8 17 -155.5 15.6 -153.8 Z" fill="white" stroke="black" stroke-width="5" stroke-linecap="round" stroke-linejoin="round"/><circle cx="47" cy="-96" r="8" data-hand="1" fill="white" stroke="black" stroke-width="4"/><circle cx="0" cy="-196" r="37" data-face="0,-196,37" fill="white" stroke="black" stroke-width="5"/><path d="M -42.18 -173.06 Q -48.1 -229.3 -14.8 -239.66 Q 14.8 -245.95 38.85 -218.2 Q 47.36 -199.7 42.18 -173.06 Q 36.26 -168.25 32.56 -175.65 L 31.82 -206.36 Q 16.7 -214.5 3.7 -208.58 Q -11.1 -215.24 -31.82 -207.1 L -32.56 -175.65 Q -36.26 -168.25 -42.18 -173.06 Z" fill="white" stroke="black" stroke-width="4.5" stroke-linecap="round" stroke-linejoin="round"/><circle cx="-14.1" cy="-193" r="3.9" fill="black"/><circle cx="14.1" cy="-193" r="3.9" fill="black"/><path d="M -9.3 -181.2 Q 0 -170.1 9.3 -181.2" fill="none" stroke="black" stroke-width="4" stroke-linecap="round" stroke-linejoin="round"/><circle cx="-20.4" cy="-184.2" r="2" fill="black"/><circle cx="-15.5" cy="-180.5" r="2" fill="black"/><circle cx="-22.9" cy="-179.3" r="2" fill="black"/><circle cx="20.4" cy="-184.2" r="2" fill="black"/><circle cx="15.5" cy="-180.5" r="2" fill="black"/><circle cx="22.9" cy="-179.3" r="2" fill="black"/></g></g><rect x="636.0" y="700.0" width="104.0" height="74.0" rx="8" fill="white" stroke="black" stroke-width="4.5"/><text x="688" y="758" font-family="DejaVu Sans" font-size="50" font-weight="bold" text-anchor="middle" fill="white" stroke="black" stroke-width="4" letter-spacing="10">3</text><g data-mat="1" data-pad="6.1"><g transform="translate(186,938) rotate(0) scale(1.15)"><g data-el="figure"><path d="M -30 0 C -41.2 -5 -40.7 -20.3 -41 -30 C -41.3 -39.7 -36.8 -50.7 -32 -58 C -27.2 -65.3 -18.7 -72.7 -12 -74 C -5.3 -75.3 2 -71.7 8 -66 C 14 -60.3 20.8 -49 24 -40 C 27.2 -31 26.7 -18.7 27 -12 C 27.3 -5.3 35.5 -2 26 0 C 16.5 2 -18.8 5 -30 0 Z" fill="white" stroke="white" stroke-width="10.6" stroke-linecap="round" stroke-linejoin="round"/><path d="M -30 0 L 26 0" fill="none" stroke="white" stroke-width="10.6" stroke-linecap="round" stroke-linejoin="round"/><path d="M 26 -6 Q 48 -10 46 -30 Q 40 -28 36 -20" fill="none" stroke="white" stroke-width="10.1" stroke-linecap="round" stroke-linejoin="round"/><circle cx="-4" cy="-88" r="22" fill="white" stroke="white" stroke-width="10.6"/><path d="M -20 -104 L -16 -122 L -4 -108 Z" fill="white" stroke="white" stroke-width="10.1" stroke-linecap="round" stroke-linejoin="round"/><path d="M 8 -108 L 16 -124 L 22 -106 Z" fill="white" stroke="white" stroke-width="10.1" stroke-linecap="round" stroke-linejoin="round"/><circle cx="-11" cy="-90" r="2.8" fill="white"/><circle cx="5" cy="-90" r="2.8" fill="white"/><path d="M -6 -82 Q -3 -79 0 -82" fill="none" stroke="white" stroke-width="9.1" stroke-linecap="round" stroke-linejoin="round"/><line x1="-24" y1="-84" x2="-34" y2="-86" stroke="white" stroke-width="8.6" stroke-linecap="round"/><line x1="-24" y1="-80" x2="-34" y2="-78" stroke="white" stroke-width="8.6" stroke-linecap="round"/><line x1="18" y1="-84" x2="28" y2="-86" stroke="white" stroke-width="8.6" stroke-linecap="round"/><line x1="18" y1="-80" x2="28" y2="-78" stroke="white" stroke-width="8.6" stroke-linecap="round"/><path d="M -18 -56 Q -10 -60 -2 -56 M -14 -42 Q -6 -46 2 -42" fill="none" stroke="white" stroke-width="9.1" stroke-linecap="round" stroke-linejoin="round"/></g></g></g><g transform="translate(186,938) rotate(0) scale(1.15)"><g data-el="figure"><path d="M -30 0 C -41.2 -5 -40.7 -20.3 -41 -30 C -41.3 -39.7 -36.8 -50.7 -32 -58 C -27.2 -65.3 -18.7 -72.7 -12 -74 C -5.3 -75.3 2 -71.7 8 -66 C 14 -60.3 20.8 -49 24 -40 C 27.2 -31 26.7 -18.7 27 -12 C 27.3 -5.3 35.5 -2 26 0 C 16.5 2 -18.8 5 -30 0 Z" fill="white" stroke="black" stroke-width="4.5" stroke-linecap="round" stroke-linejoin="round"/><path d="M -30 0 L 26 0" fill="none" stroke="black" stroke-width="4.5" stroke-linecap="round" stroke-linejoin="round"/><path d="M 26 -6 Q 48 -10 46 -30 Q 40 -28 36 -20" fill="none" stroke="black" stroke-width="4" stroke-linecap="round" stroke-linejoin="round"/><circle cx="-4" cy="-88" r="22" fill="white" stroke="black" stroke-width="4.5"/><path d="M -20 -104 L -16 -122 L -4 -108 Z" fill="white" stroke="black" stroke-width="4" stroke-linecap="round" stroke-linejoin="round"/><path d="M 8 -108 L 16 -124 L 22 -106 Z" fill="white" stroke="black" stroke-width="4" stroke-linecap="round" stroke-linejoin="round"/><circle cx="-11" cy="-90" r="2.8" fill="black"/><circle cx="5" cy="-90" r="2.8" fill="black"/><path d="M -6 -82 Q -3 -79 0 -82" fill="none" stroke="black" stroke-width="3" stroke-linecap="round" stroke-linejoin="round"/><line x1="-24" y1="-84" x2="-34" y2="-86" stroke="black" stroke-width="2.5" stroke-linecap="round"/><line x1="-24" y1="-80" x2="-34" y2="-78" stroke="black" stroke-width="2.5" stroke-linecap="round"/><line x1="18" y1="-84" x2="28" y2="-86" stroke="black" stroke-width="2.5" stroke-linecap="round"/><line x1="18" y1="-80" x2="28" y2="-78" stroke="black" stroke-width="2.5" stroke-linecap="round"/><path d="M -18 -56 Q -10 -60 -2 -56 M -14 -42 Q -6 -46 2 -42" fill="none" stroke="black" stroke-width="3" stroke-linecap="round" stroke-linejoin="round"/></g></g><polygon points="300.0,237.0 296.6,245.3 287.6,246.0 294.4,251.8 292.4,260.5 300.0,255.8 307.6,260.5 305.6,251.8 312.4,246.0 303.4,245.3" fill="none" stroke="black" stroke-width="3.2" stroke-linejoin="round"/><g data-chrome="1"><text x="431" y="108" font-family="DejaVu Sans" font-size="40" font-weight="bold" text-anchor="middle" fill="black">The Box That Was a Rocket</text><path d="M 181.0 130 Q 431.0 148 681.0 130" fill="none" stroke="black" stroke-width="4" stroke-linecap="round" stroke-linejoin="round"/><text x="431" y="1022" font-family="DejaVu Sans" font-size="20" font-weight="normal" text-anchor="middle" fill="black">2</text></g></svg>